<svg width="597" height="190" viewBox="0 0 597 190" fill="none" xmlns="http://www.w3.org/2000/svg">
<path d="M109.561 54.2093L57.9269 9.69956C56.4887 8.45952 54.2051 8.45952 52.7669 9.69956L1.13299 54.2093C-1.25825 56.2705 0.388577 59.8857 3.71288 59.8857H16.6678V104.561C16.6678 106.385 18.3285 107.864 20.3772 107.864H39.5408V73.8681C39.5408 72.044 41.2015 70.5649 43.2502 70.5649H67.4434C69.4918 70.5649 71.1528 72.0438 71.1528 73.8681V107.864H90.3164C92.3648 107.864 94.0258 106.385 94.0258 104.561V59.8859H106.981C110.308 59.8859 111.949 56.2686 109.561 54.2093Z" fill="#098C8C"/>
<rect x="33.2676" y="66.5967" width="45.0983" height="41.2751" fill="#098C8C"/>
<path d="M55.3469 55.3525C43.5816 55.3525 34.0098 63.9243 34.0098 74.4603C34.0098 87.5359 53.1045 106.732 53.9174 107.542C54.681 108.304 56.0142 108.303 56.7765 107.542C57.5894 106.732 76.6841 87.5359 76.6841 74.4603C76.6839 63.9243 67.1122 55.3525 55.3469 55.3525ZM55.3469 84.074C49.4275 84.074 44.6118 79.7613 44.6118 74.4603C44.6118 69.1593 49.4276 64.8468 55.3469 64.8468C61.2663 64.8468 66.082 69.1594 66.082 74.4604C66.082 79.7615 61.2663 84.074 55.3469 84.074Z" fill="white"/>
<ellipse cx="55.8387" cy="74.6625" rx="11.5877" ry="10.3188" fill="#098C8C"/>
<path d="M181.285 102.525C175.825 102.525 170.925 101.335 166.585 98.955C162.315 96.575 158.955 93.25 156.505 88.98C154.055 84.64 152.83 79.775 152.83 74.385C152.83 68.995 154.055 64.165 156.505 59.895C158.955 55.625 162.315 52.3 166.585 49.92C170.925 47.54 175.825 46.35 181.285 46.35C186.045 46.35 190.28 47.295 193.99 49.185C197.77 51.005 200.745 53.7 202.915 57.27L197.35 61.05C195.53 58.32 193.22 56.29 190.42 54.96C187.62 53.56 184.575 52.86 181.285 52.86C177.295 52.86 173.69 53.77 170.47 55.59C167.32 57.34 164.835 59.86 163.015 63.15C161.265 66.44 160.39 70.185 160.39 74.385C160.39 78.655 161.265 82.435 163.015 85.725C164.835 88.945 167.32 91.465 170.47 93.285C173.69 95.035 177.295 95.91 181.285 95.91C184.575 95.91 187.62 95.245 190.42 93.915C193.22 92.585 195.53 90.555 197.35 87.825L202.915 91.605C200.745 95.175 197.77 97.905 193.99 99.795C190.21 101.615 185.975 102.525 181.285 102.525ZM239.212 102.525C233.892 102.525 229.097 101.335 224.827 98.955C220.557 96.505 217.197 93.145 214.747 88.875C212.297 84.605 211.072 79.775 211.072 74.385C211.072 68.995 212.297 64.165 214.747 59.895C217.197 55.625 220.557 52.3 224.827 49.92C229.097 47.54 233.892 46.35 239.212 46.35C244.532 46.35 249.327 47.54 253.597 49.92C257.867 52.3 261.192 55.625 263.572 59.895C266.022 64.165 267.247 68.995 267.247 74.385C267.247 79.775 266.022 84.605 263.572 88.875C261.192 93.145 257.867 96.505 253.597 98.955C249.327 101.335 244.532 102.525 239.212 102.525ZM239.212 95.91C243.132 95.91 246.632 95.035 249.712 93.285C252.862 91.465 255.312 88.91 257.062 85.62C258.812 82.33 259.687 78.585 259.687 74.385C259.687 70.185 258.812 66.44 257.062 63.15C255.312 59.86 252.862 57.34 249.712 55.59C246.632 53.77 243.132 52.86 239.212 52.86C235.292 52.86 231.757 53.77 228.607 55.59C225.527 57.34 223.077 59.86 221.257 63.15C219.507 66.44 218.632 70.185 218.632 74.385C218.632 78.585 219.507 82.33 221.257 85.62C223.077 88.91 225.527 91.465 228.607 93.285C231.757 95.035 235.292 95.91 239.212 95.91ZM289.607 57.585C291.357 53.875 293.947 51.075 297.377 49.185C300.877 47.295 305.182 46.35 310.292 46.35V53.595L308.507 53.49C302.697 53.49 298.147 55.275 294.857 58.845C291.567 62.415 289.922 67.42 289.922 73.86V102H282.467V46.77H289.607V57.585ZM343.008 46.35C350.218 46.35 355.748 48.17 359.598 51.81C363.448 55.38 365.373 60.7 365.373 67.77V102H358.233V93.39C356.553 96.26 354.068 98.5 350.778 100.11C347.558 101.72 343.708 102.525 339.228 102.525C333.068 102.525 328.168 101.055 324.528 98.115C320.888 95.175 319.068 91.29 319.068 86.46C319.068 81.77 320.748 77.99 324.108 75.12C327.538 72.25 332.963 70.815 340.383 70.815H357.918V67.455C357.918 62.695 356.588 59.09 353.928 56.64C351.268 54.12 347.383 52.86 342.273 52.86C338.773 52.86 335.413 53.455 332.193 54.645C328.973 55.765 326.208 57.34 323.898 59.37L320.538 53.805C323.338 51.425 326.698 49.605 330.618 48.345C334.538 47.015 338.668 46.35 343.008 46.35ZM340.383 96.645C344.583 96.645 348.188 95.7 351.198 93.81C354.208 91.85 356.448 89.05 357.918 85.41V76.38H340.593C331.143 76.38 326.418 79.67 326.418 86.25C326.418 89.47 327.643 92.025 330.093 93.915C332.543 95.735 335.973 96.645 340.383 96.645ZM465.656 46.77L444.761 102H437.726L420.296 56.745L402.866 102H395.831L375.041 46.77H382.181L399.506 93.705L417.251 46.77H423.656L441.296 93.705L458.831 46.77H465.656ZM494.561 46.35C501.771 46.35 507.301 48.17 511.151 51.81C515.001 55.38 516.926 60.7 516.926 67.77V102H509.786V93.39C508.106 96.26 505.621 98.5 502.331 100.11C499.111 101.72 495.261 102.525 490.781 102.525C484.621 102.525 479.721 101.055 476.081 98.115C472.441 95.175 470.621 91.29 470.621 86.46C470.621 81.77 472.301 77.99 475.661 75.12C479.091 72.25 484.516 70.815 491.936 70.815H509.471V67.455C509.471 62.695 508.141 59.09 505.481 56.64C502.821 54.12 498.936 52.86 493.826 52.86C490.326 52.86 486.966 53.455 483.746 54.645C480.526 55.765 477.761 57.34 475.451 59.37L472.091 53.805C474.891 51.425 478.251 49.605 482.171 48.345C486.091 47.015 490.221 46.35 494.561 46.35ZM491.936 96.645C496.136 96.645 499.741 95.7 502.751 93.81C505.761 91.85 508.001 89.05 509.471 85.41V76.38H492.146C482.696 76.38 477.971 79.67 477.971 86.25C477.971 89.47 479.196 92.025 481.646 93.915C484.096 95.735 487.526 96.645 491.936 96.645ZM582.559 46.77L554.944 108.615C552.704 113.795 550.114 117.47 547.174 119.64C544.234 121.81 540.699 122.895 536.569 122.895C533.909 122.895 531.424 122.475 529.114 121.635C526.804 120.795 524.809 119.535 523.129 117.855L526.594 112.29C529.394 115.09 532.754 116.49 536.674 116.49C539.194 116.49 541.329 115.79 543.079 114.39C544.899 112.99 546.579 110.61 548.119 107.25L550.534 101.895L525.859 46.77H533.629L554.419 93.705L575.209 46.77H582.559Z" fill="#098C8C"/>
</svg>
